<?xml version="1.0" encoding="UTF-8"?>
<svg width="22px" height="42px" viewBox="0 0 22 42" version="1.1" xmlns="http://www.w3.org/2000/svg" xmlns:xlink="http://www.w3.org/1999/xlink">
    <!-- Generator: Sketch 43.1 (39012) - http://www.bohemiancoding.com/sketch -->
    <title>facebook</title>
    <desc>Created with Sketch.</desc>
    <defs></defs>
    <g id="Page-1" stroke="none" stroke-width="1" fill="none" fill-rule="evenodd">
        <g id="facebook" transform="translate(0.000000, -1.000000)" fill-rule="nonzero" fill="#EEE6E5">
            <path d="M21.23,1.31 L21.23,8 L17.4,8 C16.3623303,7.86866946 15.3195536,8.20162625 14.55,8.91 C14.0018157,9.70642132 13.7408548,10.6656287 13.81,11.63 L13.81,16.4 L21,16.4 L20,23.87 L13.81,23.87 L13.81,43 L6.27,43 L6.27,23.85 L0,23.85 L0,16.38 L6.27,16.38 L6.27,10.85 C6.27,7.72333333 7.12,5.29666667 8.82,3.57 C10.626867,1.7926619 13.099392,0.859565115 15.63,1 C17.5016493,0.970747913 19.3730154,1.07434139 21.23,1.31 L21.23,1.31 Z" id="Shape"></path>
        </g>
    </g>
</svg>